
<svg width="40" height="40" viewBox="0 0 40 40" fill="none" xmlns="http://www.w3.org/2000/svg">
  <defs>
    <linearGradient id="logoGradient" x1="0%" y1="0%" x2="100%" y2="100%">
      <stop offset="0%" style="stop-color:#ff6b9d;stop-opacity:1" />
      <stop offset="50%" style="stop-color:#c44569;stop-opacity:1" />
      <stop offset="100%" style="stop-color:#f8b500;stop-opacity:1" />
    </linearGradient>
  </defs>
  
  <!-- Background Circle -->
  <circle cx="20" cy="20" r="18" fill="url(#logoGradient)" stroke="#fff" stroke-width="2"/>
  
  <!-- Apple Icon (Teacher Symbol) -->
  <path d="M20 7c3.5 0 6 2.5 6 6 0 4-2.5 8-6 8s-6-4-6-8c0-3.5 2.5-6 6-6z" 
        fill="#fff" stroke="none"/>
  
  <!-- Apple Leaf -->
  <path d="M20 7c0-1 1-2 2-1.5" stroke="#4caf50" stroke-width="2" fill="none" stroke-linecap="round"/>
  
  <!-- Book/PDF Icon -->
  <rect x="14" y="22" width="12" height="8" rx="1" fill="#fff" stroke="none"/>
  <path d="M16 25h8" stroke="#ff6b9d" stroke-width="1.5" stroke-linecap="round"/>
  <path d="M16 27h6" stroke="#ff6b9d" stroke-width="1.5" stroke-linecap="round"/>
  
  <!-- Heart (Love for Education) -->
  <path d="M18 17c0-1 1-2 2-2s2 1 2 2c0 1-2 3-2 3s-2-2-2-3z" fill="#ff6b9d"/>
</svg>
